# xmcd
#
# Track frame offsets:
#  150
#  18910
#  38781
#  55473
#  67644
#  87109
#  122475
#  138964
#  160319
#  180209
#  201521
#  215135
#
# Disc length: 3099 seconds
#
# Revision: 0
# Processed by: cddbd v1.5.1PL0 Copyright (c) Steve Scherf et al.
# Submitted via: Collectorz.com_Music_Collector 6.9
#
DISCID=9e0c190c
DTITLE=Vance Kelly and His Backstreet Blues Band - NoBody Has The Power
DYEAR=2005
DGENRE=Blues
TTITLE0=Change My Mind
TTITLE1=I'll Play The Blues For You
TTITLE2=Nobody Has The Power
TTITLE3=Sending You A Message
TTITLE4=Steppin' In
TTITLE5=Say You Love Me
TTITLE6=Still Called The Blues
TTITLE7=Let's Straighten It Out
TTITLE8=Sugar Baby/Rock Me Baby
TTITLE9=As Simple As This
TTITLE10=Finally I Found You
TTITLE11=Step On By
EXTD=
EXTT0=
EXTT1=
EXTT2=
EXTT3=
EXTT4=
EXTT5=
EXTT6=
EXTT7=
EXTT8=
EXTT9=
EXTT10=
EXTT11=
PLAYORDER=
